<?xml version="1.0" encoding="utf-8"?>
<!-- Generator: Adobe Illustrator 16.0.0, SVG Export Plug-In . SVG Version: 6.00 Build 0)  -->
<!DOCTYPE svg PUBLIC "-//W3C//DTD SVG 1.1//EN" "http://www.w3.org/Graphics/SVG/1.1/DTD/svg11.dtd">
<svg version="1.1" id="Layer_1" xmlns="http://www.w3.org/2000/svg" xmlns:xlink="http://www.w3.org/1999/xlink" x="0px" y="0px"
	 width="130px" height="130px" viewBox="0 0 130 130" enable-background="new 0 0 130 130" xml:space="preserve">
<g>
	<g id="Shape_1_copy_3_10_">
		<ellipse fill="#1879FD" cx="65" cy="65" rx="64" ry="64.017"/>
	</g>
	<g id="Shape_21_copy">
		<path fill="#FFFFFF" d="M61.333,64.008c1.447-0.737,2.542-1.554,3.283-2.453c1.33-1.599,1.992-3.708,1.992-6.343
			c0-2.551-0.653-4.744-1.974-6.576c-2.194-2.983-5.915-4.506-11.165-4.589H32.647v43.08h19.417c2.186,0,4.215-0.193,6.086-0.583
			c1.869-0.387,3.495-1.105,4.866-2.16c1.22-0.914,2.236-2.046,3.05-3.385c1.283-2.026,1.915-4.318,1.915-6.876
			c0-2.471-0.557-4.576-1.677-6.309C65.192,66.073,63.527,64.811,61.333,64.008z M42.59,51.529h8.025
			c2.062,0,3.761,0.226,5.088,0.672c1.547,0.643,2.317,1.969,2.317,3.975c0,1.813-0.583,3.074-1.748,3.786
			c-1.168,0.713-2.688,1.067-4.557,1.067H42.59V51.529z M56.066,78.888c-1.044,0.511-2.494,0.757-4.363,0.757H42.59V68.163h9.256
			c1.847,0.019,3.287,0.259,4.31,0.731c1.825,0.829,2.745,2.375,2.745,4.614C58.9,76.164,57.951,77.95,56.066,78.888z M101.664,66.5
			c-0.378-2.421-1.194-4.544-2.46-6.383c-1.404-2.084-3.181-3.604-5.333-4.569c-2.156-0.963-4.576-1.443-7.262-1.443
			c-4.527,0-8.204,1.425-11.046,4.278c-2.835,2.855-4.253,6.952-4.253,12.304c0,5.709,1.573,9.825,4.712,12.362
			c3.144,2.532,6.766,3.8,10.879,3.8c4.976,0,8.851-1.508,11.614-4.504c1.783-1.891,2.775-3.748,2.989-5.579h-8.239
			c-0.479,0.899-1.032,1.611-1.659,2.115c-1.149,0.953-2.647,1.418-4.483,1.418c-1.737,0-3.227-0.382-4.449-1.158
			c-2.029-1.243-3.104-3.411-3.227-6.513h22.482C101.968,69.955,101.878,67.91,101.664,66.5z M79.642,67.302
			c0.291-2.013,1.006-3.604,2.152-4.775c1.135-1.172,2.74-1.767,4.815-1.767c1.91,0,3.504,0.555,4.786,1.669
			c1.288,1.105,2.007,2.731,2.155,4.873H79.642z M95.224,45.833H77.861v4.311h17.362V45.833z"/>
	</g>
</g>
</svg>
