<?xml version="1.0" encoding="utf-8"?>
<!-- Generator: Adobe Illustrator 16.0.0, SVG Export Plug-In . SVG Version: 6.00 Build 0)  -->
<!DOCTYPE svg PUBLIC "-//W3C//DTD SVG 1.1//EN" "http://www.w3.org/Graphics/SVG/1.1/DTD/svg11.dtd">
<svg version="1.1" id="Layer_1" xmlns="http://www.w3.org/2000/svg" xmlns:xlink="http://www.w3.org/1999/xlink" x="0px" y="0px"
	 width="130px" height="130px" viewBox="0 0 130 130" enable-background="new 0 0 130 130" xml:space="preserve">
<g>
	<g id="Shape_1_copy_3_19_">
		<ellipse fill="#CF5C9E" cx="65.11" cy="65.701" rx="64" ry="64.017"/>
	</g>
	<g id="icon_copy_5">
		<path fill="#FFFFFF" d="M65.251,31.827c-18.601,0-33.734,14.85-33.734,33.45S46.65,99.575,65.251,99.575
			s33.452-15.697,33.452-34.298S83.852,31.827,65.251,31.827z M87.836,46.819c4.014,4.904,6.443,11.431,6.506,18.231
			c-0.949-0.201-10.757-2.133-20.344-0.926c-0.203-0.495-0.41-0.991-0.621-1.489c-0.599-1.405-1.242-2.801-1.913-4.172
			C82.119,54.112,87.229,47.642,87.836,46.819z M65.251,36.227c7.321,0,14.294,2.747,19.382,7.26
			c-0.519,0.739-5.138,6.85-15.384,10.691c-4.722-8.676-9.955-15.803-10.75-16.868C60.666,36.787,62.926,36.227,65.251,36.227z
			 M52.72,38.964c0.759,1.043,6.19,8.458,10.965,16.946c-13.479,3.581-25.351,3.527-26.639,3.512
			C38.914,50.479,44.658,42.767,52.72,38.964z M36.437,65.322c0-0.295,0.006-0.587,0.016-0.88c1.26,0.025,15.222,0.205,29.612-4.101
			c0.825,1.613,1.613,3.252,2.337,4.889c-0.382,0.107-0.761,0.222-1.137,0.343c-14.86,4.805-22.769,17.896-23.42,19.014
			C39.243,79.48,36.437,72.723,36.437,65.322z M65.251,94.98c-6.661,0-12.801-3.117-17.687-6.927
			c0.519-1.06,6.353-12.332,22.605-17.994c0.062-0.022,0.126-0.043,0.188-0.064c4.046,10.513,5.719,19.323,6.147,21.851
			C73.046,93.319,69.241,94.98,65.251,94.98z M81.351,89.208c-0.296-1.753-1.829-10.188-5.599-20.544
			c9.028-1.445,16.962,0.92,17.948,1.232C92.416,77.913,87.813,84.837,81.351,89.208z"/>
	</g>
</g>
</svg>
